<svg xmlns="http://www.w3.org/2000/svg" viewBox="0 0 31.84 31.84"><defs><style>.cls-1{fill:#f4f4f4;stroke:#efefef;stroke-width:5.31px;}.cls-1,.cls-2,.cls-3,.cls-4{stroke-linecap:round;stroke-linejoin:round;}.cls-2,.cls-3,.cls-4{fill:none;}.cls-2{stroke:#59168b;}.cls-2,.cls-3{stroke-width:2.26px;}.cls-3,.cls-4{stroke:#1c398e;}.cls-4{stroke-width:2.36px;}</style></defs><title>Recurso 2</title><g id="Capa_2" data-name="Capa 2"><g id="Capa_1-2" data-name="Capa 1"><circle class="cls-1" cx="15.92" cy="15.92" r="13.27"/><path class="cls-2" d="M12.81,16.58a5.06,5.06,0,0,0,3.38-4.51"/><path class="cls-2" d="M9.43,7.7a3.36,3.36,0,0,0,.45,1.55"/><path class="cls-2" d="M6.58,14.21a4.81,4.81,0,0,1,.66-.45"/><path class="cls-2" d="M9.43,22.22a4.54,4.54,0,0,1-2.22-.58"/><path class="cls-3" d="M16.19,16.91h4.52"/><path class="cls-4" d="M16.19,23.22H23a2.38,2.38,0,0,0,2.26-2.48V19.5"/><path class="cls-3" d="M16.19,7.56h9"/><path class="cls-3" d="M20.71,7.56v3.38A2.26,2.26,0,0,0,23,13.2"/><circle class="cls-3" cx="20.71" cy="16.91" r="0.56"/><circle class="cls-3" cx="23.95" cy="13.2" r="0.56"/><circle class="cls-3" cx="25.22" cy="19.04" r="0.56"/><circle class="cls-3" cx="25.22" cy="7.56" r="0.56"/><path class="cls-2" d="M16.19,7.56a3.38,3.38,0,1,0-6.76,0V7.7a4.54,4.54,0,0,0-2.85,6.51,4.53,4.53,0,0,0,.63,7.43,4.51,4.51,0,1,0,9,1.15,5.44,5.44,0,0,0,0-.57Z"/></g></g></svg>