<svg xmlns="http://www.w3.org/2000/svg" viewBox="0 0 16.69 17.5"><defs><style>.cls-1,.cls-2{fill:#f4f4f4;}.cls-2{stroke:#efefef;stroke-width:2.47px;}.cls-2,.cls-3,.cls-4,.cls-5{stroke-linecap:round;stroke-linejoin:round;}.cls-3,.cls-4,.cls-5{fill:none;}.cls-3{stroke:#59168b;}.cls-3,.cls-4{stroke-width:1.05px;}.cls-4,.cls-5{stroke:#1c398e;}.cls-5{stroke-width:1.1px;}</style></defs><title>pov-ia-icono-2</title><g id="Capa_2" data-name="Capa 2"><g id="Capa_1-2" data-name="Capa 1"><path class="cls-1" d="M9.44,17.27H9.11a5.72,5.72,0,0,1-2.49-.77q-.18-.12-.63-.36l-.65-.35c-.13-.06-.32-.18-.58-.34s-.48-.31-.66-.44l-.63-.47c-.25-.19-.51-.4-.77-.63s-.53-.48-.81-.77a4.91,4.91,0,0,1-1.28-2A6.29,6.29,0,0,1,.24,8.81a9.42,9.42,0,0,1,.4-2.43,10,10,0,0,1,1-2.32,9.92,9.92,0,0,1,1.55-2A7.8,7.8,0,0,1,5.12.74,4.87,4.87,0,0,1,7.32.23,4.74,4.74,0,0,1,9.63.85a22.72,22.72,0,0,1,5.06,3.62A5.59,5.59,0,0,1,16,6.52a6.44,6.44,0,0,1,.43,2.4,8.46,8.46,0,0,1-.39,2.45,10,10,0,0,1-1,2.31,9.08,9.08,0,0,1-1.58,1.91,6.9,6.9,0,0,1-2,1.29A5.14,5.14,0,0,1,9.44,17.27ZM8.91,3.07a3.69,3.69,0,0,0-2.19.82A7.38,7.38,0,0,0,4.23,7.65a6.09,6.09,0,0,0,.16,4.69,3.63,3.63,0,0,0,1.44,1.54,3.63,3.63,0,0,0,1.89.59h0A3.79,3.79,0,0,0,10,13.59a7.27,7.27,0,0,0,2.45-3.81,5.87,5.87,0,0,0-.29-4.67A3.88,3.88,0,0,0,10.9,3.74,3.65,3.65,0,0,0,8.91,3.07Z"/><path class="cls-1" d="M7.32.47a4.55,4.55,0,0,1,2.2.58,22.52,22.52,0,0,1,5,3.59,5.51,5.51,0,0,1,1.28,2,6.4,6.4,0,0,1,.41,2.31,8.33,8.33,0,0,1-.38,2.39,9.8,9.8,0,0,1-1,2.26,8.62,8.62,0,0,1-1.54,1.86,6.64,6.64,0,0,1-1.93,1.25A5,5,0,0,1,9.45,17H9.12a5.24,5.24,0,0,1-2.38-.74l-.64-.36-.65-.34c-.13-.07-.32-.18-.57-.34s-.47-.3-.64-.43l-.63-.47c-.25-.18-.5-.39-.75-.61s-.52-.48-.81-.77A4.75,4.75,0,0,1,.83,11.08,6.25,6.25,0,0,1,.47,8.81,9,9,0,0,1,.86,6.45a9.8,9.8,0,0,1,1-2.27A9.13,9.13,0,0,1,3.38,2.27,7.33,7.33,0,0,1,5.23,1,4.68,4.68,0,0,1,7.32.47m.4,14.23a4,4,0,0,0,2.43-.93,7.49,7.49,0,0,0,2.54-3.93A6.07,6.07,0,0,0,12.37,5,4.09,4.09,0,0,0,11,3.54a3.82,3.82,0,0,0-2.12-.7,3.85,3.85,0,0,0-2.33.86A7.62,7.62,0,0,0,4,7.58a6.31,6.31,0,0,0,.18,4.87,4,4,0,0,0,1.53,1.64,4,4,0,0,0,2,.61M7.32,0A5.18,5.18,0,0,0,5,.53a8.06,8.06,0,0,0-2,1.41,9.72,9.72,0,0,0-1.59,2,10.7,10.7,0,0,0-1,2.37A10.44,10.44,0,0,0,0,8.8a6.71,6.71,0,0,0,.39,2.44A5.19,5.19,0,0,0,1.73,13.3c.27.28.55.54.82.78s.53.44.78.64l.63.47c.19.14.41.29.67.45l.6.35.65.35c.29.15.5.27.61.34a5.92,5.92,0,0,0,2.6.81h.36a5.4,5.4,0,0,0,2.09-.4,7.23,7.23,0,0,0,2.07-1.33,9.3,9.3,0,0,0,1.62-2,10.5,10.5,0,0,0,1.06-2.36,9.38,9.38,0,0,0,.4-2.52,6.67,6.67,0,0,0-.45-2.48,5.67,5.67,0,0,0-1.39-2.13A22.66,22.66,0,0,0,9.74.64,5.06,5.06,0,0,0,7.32,0Zm.4,14.23A3.45,3.45,0,0,1,6,13.69,3.55,3.55,0,0,1,4.6,12.24a5.89,5.89,0,0,1-.15-4.52A7.16,7.16,0,0,1,6.87,4.07a3.38,3.38,0,0,1,2-.76,3.44,3.44,0,0,1,1.86.62A3.68,3.68,0,0,1,12,5.22a5.65,5.65,0,0,1,.28,4.49A7.13,7.13,0,0,1,9.87,13.4a3.56,3.56,0,0,1-2.15.83Z"/><circle class="cls-2" cx="8.34" cy="8.8" r="6.18"/><path class="cls-3" d="M6.9,9.11A2.36,2.36,0,0,0,8.47,7"/><path class="cls-3" d="M5.32,5a1.54,1.54,0,0,0,.21.72"/><path class="cls-3" d="M4,8a2.11,2.11,0,0,1,.31-.21"/><path class="cls-3" d="M5.32,11.74a2.24,2.24,0,0,1-1-.27"/><path class="cls-4" d="M8.47,9.26h2.11"/><path class="cls-5" d="M8.47,12.2h3.16a1.1,1.1,0,0,0,1-1.15v-.58"/><path class="cls-4" d="M8.47,4.9h4.21"/><path class="cls-4" d="M10.58,4.9V6.48a1,1,0,0,0,1.05,1"/><circle class="cls-4" cx="10.58" cy="9.26" r="0.26"/><circle class="cls-4" cx="12.09" cy="7.53" r="0.26"/><circle class="cls-4" cx="12.68" cy="10.25" r="0.26"/><circle class="cls-4" cx="12.68" cy="4.9" r="0.26"/><path class="cls-3" d="M8.47,4.9a1.58,1.58,0,0,0-3.15,0V5A2.1,2.1,0,0,0,3.81,7.53,2.07,2.07,0,0,0,4,8a2.1,2.1,0,0,0-.3,3,2.07,2.07,0,0,0,.59.51A2.11,2.11,0,0,0,8.46,12a2.17,2.17,0,0,0,0-.26Z"/></g></g></svg>