<svg xmlns="http://www.w3.org/2000/svg" viewBox="0 0 474.97 106.71"><defs><style>.cls-1,.cls-3{fill:#f4f4f4;}.cls-2,.cls-4,.cls-5,.cls-6{fill:none;}.cls-2{stroke:#f2f2f2;stroke-miterlimit:10;stroke-width:11.29px;}.cls-3{stroke:#efefef;stroke-width:14.93px;}.cls-3,.cls-4,.cls-5,.cls-6{stroke-linecap:round;stroke-linejoin:round;}.cls-4{stroke:#59168b;}.cls-4,.cls-5{stroke-width:6.35px;}.cls-5,.cls-6{stroke:#1c398e;}.cls-6{stroke-width:6.65px;}</style></defs><title>pov-ia-logo</title><g id="Capa_2" data-name="Capa 2"><g id="Capa_1-2" data-name="Capa 1"><path class="cls-1" d="M2.54,100.22,1.41,98.84V8.24l1-1.36A144.62,144.62,0,0,1,30.29,2.36c2.92-.21,5.57-.31,7.88-.31,6.06,0,10,.71,12.18,2.18l.14.12c2.66,2.39,6.84,6.43,12.78,12.37,5.78,5.78,9.86,10,12.13,12.67,1.65,2,2.11,5,1.4,9.34a36.13,36.13,0,0,1-4.92,12.56,45.37,45.37,0,0,1-10.9,12,37.43,37.43,0,0,1-17,7.32,37.34,37.34,0,0,1-6.62.56,56.42,56.42,0,0,1-14.29-2l.13,33.61-1.69,1.39ZM23.05,59.64c1.21.1,2.41.15,3.56.15a31.6,31.6,0,0,0,11.85-2.15,24.63,24.63,0,0,0,10.9-7.86A38,38,0,0,0,55,38.88a27.59,27.59,0,0,0,1.5-10.63c-.25-3.1-1-5.37-2.22-6.75-2.62-2.91-7.63-4.39-14.9-4.39a93.59,93.59,0,0,0-16.49,1.77Z"/><path class="cls-1" d="M38.17,3.46q8.56,0,11.38,1.93,4.06,3.66,12.72,12.33T74.33,30.31c1.35,1.62,1.71,4.36,1.08,8.19a34.39,34.39,0,0,1-4.74,12.06A43.7,43.7,0,0,1,60.11,62.2a36,36,0,0,1-16.39,7,37.41,37.41,0,0,1-6.37.53,55.94,55.94,0,0,1-15.7-2.5l.13,35.49-19-3.93V8.24A142,142,0,0,1,30.39,3.77q4.35-.31,7.78-.31M26.61,61.2A32.86,32.86,0,0,0,39,59c5.05-2,8.9-4.8,11.51-8.32a39.43,39.43,0,0,0,5.89-11.31,28.81,28.81,0,0,0,1.56-11.18c-.27-3.43-1.13-5.95-2.57-7.58Q51,15.7,39.42,15.7a96.36,96.36,0,0,0-17.91,2l.14,43.2a44.58,44.58,0,0,0,5,.28M38.17.64c-2.34,0-5,.1-8,.31A146,146,0,0,0,2.07,5.52L0,8.24v90.6l2.25,2.76,19,3.93,3.39-2.77L24.48,71A55.7,55.7,0,0,0,37.35,72.6,39.11,39.11,0,0,0,44.21,72a38.8,38.8,0,0,0,17.65-7.6A46.85,46.85,0,0,0,73.09,52,37.64,37.64,0,0,0,78.2,39c.77-4.74.21-8.16-1.71-10.46-2.31-2.69-6.42-7-12.22-12.78-6-6-10.16-10-12.84-12.42l-.28-.23C48.74,1.41,44.62.64,38.17.64ZM24.34,20.06a89.11,89.11,0,0,1,15.08-1.54c6.85,0,11.51,1.32,13.85,3.93,1,1.12,1.64,3.17,1.86,5.91A26.21,26.21,0,0,1,53.7,38.45a36.66,36.66,0,0,1-5.47,10.49,23.28,23.28,0,0,1-10.3,7.39,30.22,30.22,0,0,1-11.32,2.05c-.7,0-1.42,0-2.15-.06l-.12-38.26Z"/><polygon class="cls-1" points="225.76 98.57 225.23 97.37 224.97 97.48 188.68 9.18 190.27 7.26 209.09 11.19 210.12 12.05 233.94 71.74 257.32 8.15 258.91 7.25 279.22 11.18 280.28 13.05 247.51 103.25 245.81 104.13 225.76 98.57"/><path class="cls-1" d="M258.64,8.64,279,12.57l-32.78,90.2-20-5.56.13-.27L190,8.64l18.83,3.93L234,75.68l24.65-67m.54-2.77L256,7.67,233.89,67.8,211.43,11.52l-2.05-1.71L190.56,5.88l-3.19,3.83L223.66,98l.73-.29,1,2.21,20,5.56,3.41-1.76,32.77-90.2L279.49,9.8,259.18,5.87Z"/><polygon class="cls-1" points="305.86 100.22 304.72 98.84 304.72 8.64 306.5 7.28 326.55 12.84 327.59 14.19 327.86 102.76 326.18 104.15 305.86 100.22"/><path class="cls-1" d="M306.13,8.64l20.05,5.56.27,88.57-20.32-3.93V8.64m.75-2.72-3.57,2.72v90.2l2.28,2.77,20.32,3.93,3.36-2.78L329,14.19l-2.07-2.71L306.88,5.92Z"/><path class="cls-1" d="M406.38,100.05,397,75.53l-30,2-9.86,26.82-21.74-4.5,33.78-93,21.37,6.35-.44,1.29,37.12,90.19Zm-34-37.17,19.22-1.34-9.61-25Z"/><path class="cls-1" d="M370.05,8.64l18.69,5.56-.14.4,36.3,88.17-17.47-3.93L398,74.06l-32,2.16-9.75,26.55-19-3.93,32.77-90.2m.27,55.8,23.29-1.63L382,32.48l-11.65,32m-2-59.26-.91,2.5L334.63,97.87l-1.12,3.07,3.2.66,19,3.93L358,106l.84-2.28L368,78.91,396.06,77l8.73,22.84.54,1.41,1.48.33,17.47,3.93,5.29,1.19-2.06-5L391.62,14.51l.73-2.19-2.8-.83-18.7-5.55-2.54-.76Zm6.15,56.14L382,40.53l7.57,19.74-15.15,1Z"/><path class="cls-2" d="M471,56.68,456.29,41.92"/><circle class="cls-2" cx="442.88" cy="28.45" r="17.98"/><path class="cls-1" d="M142.25,104.23c-.67,0-1.36,0-2.05,0a33.79,33.79,0,0,1-15-4.66c-.7-.44-1.94-1.14-3.82-2.15s-3.15-1.69-3.92-2.09-2-1.11-3.53-2.08-2.87-1.84-4-2.64l-3.81-2.85c-1.49-1.14-3.05-2.41-4.62-3.8s-3.25-3-4.93-4.66a30.19,30.19,0,0,1-7.72-11.9,38.81,38.81,0,0,1-2.25-14.19,57.54,57.54,0,0,1,2.43-14.65,61.47,61.47,0,0,1,6.17-14,57,57,0,0,1,9.38-11.81,46.44,46.44,0,0,1,11.52-8.23,29.74,29.74,0,0,1,13.29-3.06A29.06,29.06,0,0,1,143.39,5.1,137.34,137.34,0,0,1,173.9,27,33.59,33.59,0,0,1,182,39.36a39.87,39.87,0,0,1,2.59,14.46,52.34,52.34,0,0,1-2.36,14.82A60.32,60.32,0,0,1,176,82.58a53.43,53.43,0,0,1-9.53,11.55,41.39,41.39,0,0,1-12,7.77A31.49,31.49,0,0,1,142.25,104.23ZM139,18.54c-4.37,0-8.8,1.65-13.18,4.91C119,28.66,113.9,36.31,110.75,46.18c-3.39,11-3.06,20.48,1,28.31a23.88,23.88,0,0,0,20.12,12.83h0c4.59,0,9.24-1.79,13.79-5.31,6.86-5.3,11.85-13,14.82-23,3.2-10.93,2.61-20.4-1.78-28.15A23.31,23.31,0,0,0,151,22.55,21.86,21.86,0,0,0,139,18.54Z"/><path class="cls-1" d="M129.45,2.82a27.64,27.64,0,0,1,13.27,3.52A135.24,135.24,0,0,1,172.92,28a32.16,32.16,0,0,1,7.72,11.85,38.07,38.07,0,0,1,2.5,14,51,51,0,0,1-2.29,14.42,59.33,59.33,0,0,1-6.1,13.61,51.53,51.53,0,0,1-9.28,11.24,39.8,39.8,0,0,1-11.64,7.52,30.08,30.08,0,0,1-11.58,2.22c-.65,0-1.3,0-2,0a32.15,32.15,0,0,1-14.35-4.47c-.72-.45-2-1.18-3.86-2.17s-3.16-1.7-3.93-2.1-1.92-1.08-3.45-2-2.83-1.81-3.86-2.57-2.31-1.72-3.79-2.85-3-2.37-4.54-3.72S99.34,80,97.62,78.25a28.73,28.73,0,0,1-7.38-11.37A37,37,0,0,1,88.08,53.2a55.22,55.22,0,0,1,2.36-14.29,60.19,60.19,0,0,1,6-13.68,55.52,55.52,0,0,1,9.15-11.51,45.09,45.09,0,0,1,11.17-8,28.18,28.18,0,0,1,12.66-2.91m2.41,85.91q7.41,0,14.65-5.6,10.71-8.26,15.31-23.7,5-17.07-1.9-29.25a24.44,24.44,0,0,0-8.13-8.8A23,23,0,0,0,139,17.13q-7,0-14,5.19-10.7,8.13-15.57,23.43-5.28,17.07,1.08,29.39A23.57,23.57,0,0,0,119.7,85a23.4,23.4,0,0,0,12.16,3.71M129.45,0a31.18,31.18,0,0,0-13.91,3.2,47.76,47.76,0,0,0-11.88,8.49,58.52,58.52,0,0,0-9.61,12.09A63.2,63.2,0,0,0,87.74,38.1a59,59,0,0,0-2.49,15,40.36,40.36,0,0,0,2.33,14.71,31.68,31.68,0,0,0,8.08,12.44c1.69,1.7,3.36,3.28,5,4.7s3.17,2.7,4.7,3.86,2.82,2.13,3.83,2.87,2.47,1.73,4,2.7,2.79,1.68,3.61,2.12l3.93,2.09c1.85,1,3.06,1.68,3.69,2.08l.09,0a35,35,0,0,0,15.61,4.84c.71,0,1.42.06,2.12.06a33,33,0,0,0,12.66-2.44,42.75,42.75,0,0,0,12.46-8,55.19,55.19,0,0,0,9.79-11.85,62,62,0,0,0,6.38-14.26A53.79,53.79,0,0,0,186,53.83a40.84,40.84,0,0,0-2.68-15A35,35,0,0,0,174.89,26,138.7,138.7,0,0,0,144.06,3.86,30.5,30.5,0,0,0,129.45,0Zm2.41,85.91a22.46,22.46,0,0,1-18.85-12c-3.89-7.52-4.19-16.69-.91-27.29,3.05-9.56,8-17,14.59-22C130.79,21.51,134.94,20,139,20a20.45,20.45,0,0,1,11.24,3.78,21.8,21.8,0,0,1,7.21,7.81c4.21,7.43,4.76,16.53,1.66,27.09-2.88,9.66-7.7,17.15-14.32,22.26-4.3,3.33-8.66,5-12.93,5Z"/><circle class="cls-3" cx="135.6" cy="53.11" r="37.33"/><path class="cls-4" d="M126.86,55a14.26,14.26,0,0,0,9.52-12.69"/><path class="cls-4" d="M117.35,30a9.61,9.61,0,0,0,1.26,4.37"/><path class="cls-4" d="M109.33,48.31a12.67,12.67,0,0,1,1.86-1.26"/><path class="cls-4" d="M117.34,70.85a12.62,12.62,0,0,1-6.24-1.64"/><path class="cls-5" d="M136.38,55.9h12.69"/><path class="cls-6" d="M136.38,73.66h19c3.51,0,6.35-3.12,6.35-7V63.21"/><path class="cls-5" d="M136.38,29.6h25.39"/><path class="cls-5" d="M149.07,29.6v9.52a6.35,6.35,0,0,0,6.35,6.34"/><circle class="cls-5" cx="149.07" cy="55.9" r="1.59"/><circle class="cls-5" cx="158.21" cy="45.46" r="1.59"/><circle class="cls-5" cx="161.77" cy="61.89" r="1.59"/><circle class="cls-5" cx="161.77" cy="29.6" r="1.59"/><path class="cls-4" d="M136.38,29.6a9.52,9.52,0,1,0-19-.06c0,.15,0,.3,0,.45a12.71,12.71,0,0,0-8,18.31,12.7,12.7,0,0,0,1.77,20.91,12.69,12.69,0,0,0,25.18,3.25,12.32,12.32,0,0,0,.1-1.61Z"/></g></g></svg>